<?xml version="1.0" encoding="iso-8859-1"?>
<!-- Generator: Adobe Illustrator 19.0.0, SVG Export Plug-In . SVG Version: 6.00 Build 0)  -->
<svg version="1.1" id="Capa_1" xmlns="http://www.w3.org/2000/svg" xmlns:xlink="http://www.w3.org/1999/xlink" x="0px" y="0px"
	 viewBox="0 0 512.533 512.533" style="enable-background:new 0 0 512.533 512.533;" xml:space="preserve" width="100px">
<path style="fill:#FFD15D;" d="M406.6,62.4c-83.2-83.2-217.6-83.2-299.733,0c-83.2,83.2-83.2,216.533,0,299.733l149.333,150.4
	L405.533,363.2C488.733,280,488.733,145.6,406.6,62.4z"/>
<path style="fill:#FFFFFF;" d="M256.2,363.2c-83.2,0-150.4-67.2-150.4-150.4S173,62.4,256.2,62.4s150.4,67.2,150.4,150.4
	S339.4,363.2,256.2,363.2z"/>
<polygon style="fill:#F3705B;" points="357.533,185.067 287.133,174.4 256.2,111.467 225.266,174.4 154.866,185.067 205,234.133 
	193.266,304.533 256.2,271.467 319.133,304.533 307.4,234.133 "/>
<g>
</g>
<g>
</g>
<g>
</g>
<g>
</g>
<g>
</g>
<g>
</g>
<g>
</g>
<g>
</g>
<g>
</g>
<g>
</g>
<g>
</g>
<g>
</g>
<g>
</g>
<g>
</g>
<g>
</g>
</svg>
